<?xml version="1.0" encoding="UTF-8" standalone="no"?>
<!DOCTYPE svg PUBLIC "-//W3C//DTD SVG 1.1//EN"
 "http://www.w3.org/Graphics/SVG/1.1/DTD/svg11.dtd">
<!-- Generated by graphviz version 2.46.0 (20210119.1425)
 -->
<!-- Title: dependencies Pages: 1 -->
<svg width="613pt" height="211pt"
 viewBox="0.00 0.00 613.00 211.00" xmlns="http://www.w3.org/2000/svg" xmlns:xlink="http://www.w3.org/1999/xlink">
<g id="graph0" class="graph" transform="scale(1 1) rotate(0) translate(4 207)">
<title>dependencies</title>
<polygon fill="white" stroke="transparent" points="-4,4 -4,-207 609,-207 609,4 -4,4"/>
<text text-anchor="start" x="281.51" y="-42.4" font-family="sans-serif" font-weight="bold" font-size="14.00">Legend</text>
<polygon fill="#ffffb3" stroke="transparent" points="68.5,-10 68.5,-30 88.5,-30 88.5,-10 68.5,-10"/>
<text text-anchor="start" x="92.13" y="-15.4" font-family="sans-serif" font-size="14.00"> &#160;Declarations</text>
<polygon fill="#8dd3c7" stroke="transparent" points="181.5,-10 181.5,-30 201.5,-30 201.5,-10 181.5,-10"/>
<text text-anchor="start" x="205.23" y="-15.4" font-family="sans-serif" font-size="14.00"> &#160;Module</text>
<polygon fill="#80b1d3" stroke="transparent" points="267.5,-10 267.5,-30 287.5,-30 287.5,-10 267.5,-10"/>
<text text-anchor="start" x="291.28" y="-15.4" font-family="sans-serif" font-size="14.00"> &#160;Bootstrap</text>
<polygon fill="#fdb462" stroke="transparent" points="364.5,-10 364.5,-30 384.5,-30 384.5,-10 364.5,-10"/>
<text text-anchor="start" x="388.17" y="-15.4" font-family="sans-serif" font-size="14.00"> &#160;Providers</text>
<polygon fill="#fb8072" stroke="transparent" points="460.5,-10 460.5,-30 480.5,-30 480.5,-10 460.5,-10"/>
<text text-anchor="start" x="484.23" y="-15.4" font-family="sans-serif" font-size="14.00"> &#160;Exports</text>
<g id="clust1" class="cluster">
<title>cluster_HomeModule</title>
<polygon fill="none" stroke="black" stroke-dasharray="1,5" points="8,-70 8,-195 597,-195 597,-70 8,-70"/>
</g>
<g id="clust2" class="cluster">
<title>cluster_HomeModule_declarations</title>
<polygon fill="none" stroke="black" points="295,-78 295,-130 589,-130 589,-78 295,-78"/>
</g>
<g id="clust5" class="cluster">
<title>cluster_HomeModule_imports</title>
<polygon fill="none" stroke="black" points="16,-78 16,-130 287,-130 287,-78 16,-78"/>
</g>
<!-- DashboardComponent -->
<g id="node1" class="node">
<title>DashboardComponent</title>
<polygon fill="#ffffb3" stroke="black" points="580.97,-122 439.03,-122 439.03,-86 580.97,-86 580.97,-122"/>
<text text-anchor="middle" x="510" y="-99.8" font-family="Times,serif" font-size="14.00">DashboardComponent</text>
</g>
<!-- HomeModule -->
<g id="node3" class="node">
<title>HomeModule</title>
<polygon fill="#8dd3c7" stroke="black" points="332.76,-187 329.76,-191 308.76,-191 305.76,-187 239.24,-187 239.24,-151 332.76,-151 332.76,-187"/>
<text text-anchor="middle" x="286" y="-164.8" font-family="Times,serif" font-size="14.00">HomeModule</text>
</g>
<!-- DashboardComponent&#45;&gt;HomeModule -->
<g id="edge1" class="edge">
<title>DashboardComponent&#45;&gt;HomeModule</title>
<path fill="none" stroke="black" d="M510,-122.11C510,-141.34 510,-169 510,-169 510,-169 342.96,-169 342.96,-169"/>
<polygon fill="black" stroke="black" points="342.96,-165.5 332.96,-169 342.96,-172.5 342.96,-165.5"/>
</g>
<!-- ServerComponent -->
<g id="node2" class="node">
<title>ServerComponent</title>
<polygon fill="#ffffb3" stroke="black" points="420.87,-122 303.13,-122 303.13,-86 420.87,-86 420.87,-122"/>
<text text-anchor="middle" x="362" y="-99.8" font-family="Times,serif" font-size="14.00">ServerComponent</text>
</g>
<!-- ServerComponent&#45;&gt;HomeModule -->
<g id="edge2" class="edge">
<title>ServerComponent&#45;&gt;HomeModule</title>
<path fill="none" stroke="black" d="M317.97,-122.11C317.97,-122.11 317.97,-140.99 317.97,-140.99"/>
<polygon fill="black" stroke="black" points="314.47,-140.99 317.97,-150.99 321.47,-140.99 314.47,-140.99"/>
</g>
<!-- HomeRoutingModule -->
<g id="node4" class="node">
<title>HomeRoutingModule</title>
<polygon fill="#8dd3c7" stroke="black" points="279.38,-122 276.38,-126 255.38,-126 252.38,-122 140.62,-122 140.62,-86 279.38,-86 279.38,-122"/>
<text text-anchor="middle" x="210" y="-99.8" font-family="Times,serif" font-size="14.00">HomeRoutingModule</text>
</g>
<!-- HomeRoutingModule&#45;&gt;HomeModule -->
<g id="edge3" class="edge">
<title>HomeRoutingModule&#45;&gt;HomeModule</title>
<path fill="none" stroke="black" d="M259.28,-122.11C259.28,-122.11 259.28,-140.99 259.28,-140.99"/>
<polygon fill="black" stroke="black" points="255.78,-140.99 259.28,-150.99 262.78,-140.99 255.78,-140.99"/>
</g>
<!-- SharedModule -->
<g id="node5" class="node">
<title>SharedModule</title>
<polygon fill="#8dd3c7" stroke="black" points="122.42,-122 119.42,-126 98.42,-126 95.42,-122 23.58,-122 23.58,-86 122.42,-86 122.42,-122"/>
<text text-anchor="middle" x="73" y="-99.8" font-family="Times,serif" font-size="14.00">SharedModule</text>
</g>
<!-- SharedModule&#45;&gt;HomeModule -->
<g id="edge4" class="edge">
<title>SharedModule&#45;&gt;HomeModule</title>
<path fill="none" stroke="black" d="M73,-122.11C73,-141.34 73,-169 73,-169 73,-169 228.99,-169 228.99,-169"/>
<polygon fill="black" stroke="black" points="228.99,-172.5 238.99,-169 228.99,-165.5 228.99,-172.5"/>
</g>
</g>
</svg>
