<?xml version="1.0" encoding="UTF-8" standalone="no"?>
<!DOCTYPE svg PUBLIC "-//W3C//DTD SVG 1.1//EN"
 "http://www.w3.org/Graphics/SVG/1.1/DTD/svg11.dtd">
<!-- Generated by graphviz version 2.46.0 (20210119.1425)
 -->
<!-- Title: dependencies Pages: 1 -->
<svg width="804pt" height="211pt"
 viewBox="0.00 0.00 804.00 211.00" xmlns="http://www.w3.org/2000/svg" xmlns:xlink="http://www.w3.org/1999/xlink">
<g id="graph0" class="graph" transform="scale(1 1) rotate(0) translate(4 207)">
<title>dependencies</title>
<polygon fill="white" stroke="transparent" points="-4,4 -4,-207 800,-207 800,4 -4,4"/>
<text text-anchor="start" x="377.01" y="-42.4" font-family="sans-serif" font-weight="bold" font-size="14.00">Legend</text>
<polygon fill="#ffffb3" stroke="transparent" points="164,-10 164,-30 184,-30 184,-10 164,-10"/>
<text text-anchor="start" x="187.63" y="-15.4" font-family="sans-serif" font-size="14.00"> &#160;Declarations</text>
<polygon fill="#8dd3c7" stroke="transparent" points="277,-10 277,-30 297,-30 297,-10 277,-10"/>
<text text-anchor="start" x="300.73" y="-15.4" font-family="sans-serif" font-size="14.00"> &#160;Module</text>
<polygon fill="#80b1d3" stroke="transparent" points="363,-10 363,-30 383,-30 383,-10 363,-10"/>
<text text-anchor="start" x="386.78" y="-15.4" font-family="sans-serif" font-size="14.00"> &#160;Bootstrap</text>
<polygon fill="#fdb462" stroke="transparent" points="460,-10 460,-30 480,-30 480,-10 460,-10"/>
<text text-anchor="start" x="483.67" y="-15.4" font-family="sans-serif" font-size="14.00"> &#160;Providers</text>
<polygon fill="#fb8072" stroke="transparent" points="556,-10 556,-30 576,-30 576,-10 556,-10"/>
<text text-anchor="start" x="579.73" y="-15.4" font-family="sans-serif" font-size="14.00"> &#160;Exports</text>
<g id="clust1" class="cluster">
<title>cluster_HomeModule</title>
<polygon fill="none" stroke="black" stroke-dasharray="1,5" points="8,-70 8,-195 788,-195 788,-70 8,-70"/>
</g>
<g id="clust6" class="cluster">
<title>cluster_HomeModule_imports</title>
<polygon fill="none" stroke="black" points="509,-78 509,-130 780,-130 780,-78 509,-78"/>
</g>
<g id="clust2" class="cluster">
<title>cluster_HomeModule_declarations</title>
<polygon fill="none" stroke="black" points="16,-78 16,-130 501,-130 501,-78 16,-78"/>
</g>
<!-- DashboardComponent -->
<g id="node1" class="node">
<title>DashboardComponent</title>
<polygon fill="#ffffb3" stroke="black" points="492.97,-122 351.03,-122 351.03,-86 492.97,-86 492.97,-122"/>
<text text-anchor="middle" x="422" y="-99.8" font-family="Times,serif" font-size="14.00">DashboardComponent</text>
</g>
<!-- HomeModule -->
<g id="node4" class="node">
<title>HomeModule</title>
<polygon fill="#8dd3c7" stroke="black" points="468.76,-187 465.76,-191 444.76,-191 441.76,-187 375.24,-187 375.24,-151 468.76,-151 468.76,-187"/>
<text text-anchor="middle" x="422" y="-164.8" font-family="Times,serif" font-size="14.00">HomeModule</text>
</g>
<!-- DashboardComponent&#45;&gt;HomeModule -->
<g id="edge1" class="edge">
<title>DashboardComponent&#45;&gt;HomeModule</title>
<path fill="none" stroke="black" d="M422,-122.11C422,-122.11 422,-140.99 422,-140.99"/>
<polygon fill="black" stroke="black" points="418.5,-140.99 422,-150.99 425.5,-140.99 418.5,-140.99"/>
</g>
<!-- ServerComponent -->
<g id="node2" class="node">
<title>ServerComponent</title>
<polygon fill="#ffffb3" stroke="black" points="332.87,-122 215.13,-122 215.13,-86 332.87,-86 332.87,-122"/>
<text text-anchor="middle" x="274" y="-99.8" font-family="Times,serif" font-size="14.00">ServerComponent</text>
</g>
<!-- ServerComponent&#45;&gt;HomeModule -->
<g id="edge2" class="edge">
<title>ServerComponent&#45;&gt;HomeModule</title>
<path fill="none" stroke="black" d="M274,-122.02C274,-139.37 274,-163 274,-163 274,-163 365.17,-163 365.17,-163"/>
<polygon fill="black" stroke="black" points="365.17,-166.5 375.17,-163 365.17,-159.5 365.17,-166.5"/>
</g>
<!-- UserPreferencesComponent -->
<g id="node3" class="node">
<title>UserPreferencesComponent</title>
<polygon fill="#ffffb3" stroke="black" points="197.54,-122 24.46,-122 24.46,-86 197.54,-86 197.54,-122"/>
<text text-anchor="middle" x="111" y="-99.8" font-family="Times,serif" font-size="14.00">UserPreferencesComponent</text>
</g>
<!-- UserPreferencesComponent&#45;&gt;HomeModule -->
<g id="edge3" class="edge">
<title>UserPreferencesComponent&#45;&gt;HomeModule</title>
<path fill="none" stroke="black" d="M111,-122.28C111,-143.32 111,-175 111,-175 111,-175 365.1,-175 365.1,-175"/>
<polygon fill="black" stroke="black" points="365.1,-178.5 375.1,-175 365.1,-171.5 365.1,-178.5"/>
</g>
<!-- HomeRoutingModule -->
<g id="node5" class="node">
<title>HomeRoutingModule</title>
<polygon fill="#8dd3c7" stroke="black" points="772.38,-122 769.38,-126 748.38,-126 745.38,-122 633.62,-122 633.62,-86 772.38,-86 772.38,-122"/>
<text text-anchor="middle" x="703" y="-99.8" font-family="Times,serif" font-size="14.00">HomeRoutingModule</text>
</g>
<!-- HomeRoutingModule&#45;&gt;HomeModule -->
<g id="edge4" class="edge">
<title>HomeRoutingModule&#45;&gt;HomeModule</title>
<path fill="none" stroke="black" d="M703,-122.28C703,-143.32 703,-175 703,-175 703,-175 479.03,-175 479.03,-175"/>
<polygon fill="black" stroke="black" points="479.03,-171.5 469.03,-175 479.03,-178.5 479.03,-171.5"/>
</g>
<!-- SharedModule -->
<g id="node6" class="node">
<title>SharedModule</title>
<polygon fill="#8dd3c7" stroke="black" points="615.42,-122 612.42,-126 591.42,-126 588.42,-122 516.58,-122 516.58,-86 615.42,-86 615.42,-122"/>
<text text-anchor="middle" x="566" y="-99.8" font-family="Times,serif" font-size="14.00">SharedModule</text>
</g>
<!-- SharedModule&#45;&gt;HomeModule -->
<g id="edge5" class="edge">
<title>SharedModule&#45;&gt;HomeModule</title>
<path fill="none" stroke="black" d="M566,-122.02C566,-139.37 566,-163 566,-163 566,-163 479.15,-163 479.15,-163"/>
<polygon fill="black" stroke="black" points="479.15,-159.5 469.15,-163 479.15,-166.5 479.15,-159.5"/>
</g>
</g>
</svg>
