<?xml version="1.0" encoding="UTF-8" standalone="no"?>
<!DOCTYPE svg PUBLIC "-//W3C//DTD SVG 1.1//EN"
 "http://www.w3.org/Graphics/SVG/1.1/DTD/svg11.dtd">
<!-- Generated by graphviz version 2.46.0 (20210119.1425)
 -->
<!-- Title: dependencies Pages: 1 -->
<svg width="504pt" height="284pt"
 viewBox="0.00 0.00 504.00 284.00" xmlns="http://www.w3.org/2000/svg" xmlns:xlink="http://www.w3.org/1999/xlink">
<g id="graph0" class="graph" transform="scale(1 1) rotate(0) translate(4 280)">
<title>dependencies</title>
<polygon fill="white" stroke="transparent" points="-4,4 -4,-280 500,-280 500,4 -4,4"/>
<text text-anchor="start" x="227.01" y="-42.4" font-family="sans-serif" font-weight="bold" font-size="14.00">Legend</text>
<polygon fill="#ffffb3" stroke="transparent" points="14,-10 14,-30 34,-30 34,-10 14,-10"/>
<text text-anchor="start" x="37.63" y="-15.4" font-family="sans-serif" font-size="14.00"> &#160;Declarations</text>
<polygon fill="#8dd3c7" stroke="transparent" points="127,-10 127,-30 147,-30 147,-10 127,-10"/>
<text text-anchor="start" x="150.73" y="-15.4" font-family="sans-serif" font-size="14.00"> &#160;Module</text>
<polygon fill="#80b1d3" stroke="transparent" points="213,-10 213,-30 233,-30 233,-10 213,-10"/>
<text text-anchor="start" x="236.78" y="-15.4" font-family="sans-serif" font-size="14.00"> &#160;Bootstrap</text>
<polygon fill="#fdb462" stroke="transparent" points="310,-10 310,-30 330,-30 330,-10 310,-10"/>
<text text-anchor="start" x="333.67" y="-15.4" font-family="sans-serif" font-size="14.00"> &#160;Providers</text>
<polygon fill="#fb8072" stroke="transparent" points="406,-10 406,-30 426,-30 426,-10 406,-10"/>
<text text-anchor="start" x="429.73" y="-15.4" font-family="sans-serif" font-size="14.00"> &#160;Exports</text>
<g id="clust1" class="cluster">
<title>cluster_SharedModule</title>
<polygon fill="none" stroke="black" stroke-dasharray="1,5" points="83,-70 83,-268 413,-268 413,-70 83,-70"/>
</g>
<g id="clust5" class="cluster">
<title>cluster_SharedModule_exports</title>
<polygon fill="none" stroke="black" points="91,-208 91,-260 405,-260 405,-208 91,-208"/>
</g>
<g id="clust2" class="cluster">
<title>cluster_SharedModule_declarations</title>
<polygon fill="none" stroke="black" points="252,-78 252,-130 404,-130 404,-78 252,-78"/>
</g>
<g id="clust4" class="cluster">
<title>cluster_SharedModule_imports</title>
<polygon fill="none" stroke="black" points="92,-78 92,-130 244,-130 244,-78 92,-78"/>
</g>
<!-- SafeResourceUrlPipe -->
<g id="node1" class="node">
<title>SafeResourceUrlPipe</title>
<polygon fill="#ffffb3" stroke="black" points="396,-122 260,-122 260,-86 396,-86 396,-122"/>
<text text-anchor="middle" x="328" y="-99.8" font-family="Times,serif" font-size="14.00">SafeResourceUrlPipe</text>
</g>
<!-- SharedModule -->
<g id="node2" class="node">
<title>SharedModule</title>
<polygon fill="#8dd3c7" stroke="black" points="297.42,-187 294.42,-191 273.42,-191 270.42,-187 198.58,-187 198.58,-151 297.42,-151 297.42,-187"/>
<text text-anchor="middle" x="248" y="-164.8" font-family="Times,serif" font-size="14.00">SharedModule</text>
</g>
<!-- SafeResourceUrlPipe&#45;&gt;SharedModule -->
<g id="edge1" class="edge">
<title>SafeResourceUrlPipe&#45;&gt;SharedModule</title>
<path fill="none" stroke="black" d="M278.48,-122.11C278.48,-122.11 278.48,-140.99 278.48,-140.99"/>
<polygon fill="black" stroke="black" points="274.98,-140.99 278.48,-150.99 281.98,-140.99 274.98,-140.99"/>
</g>
<!-- SafeResourceUrlPipe  -->
<g id="node4" class="node">
<title>SafeResourceUrlPipe </title>
<polygon fill="#fb8072" stroke="black" points="397,-252 257,-252 257,-216 397,-216 397,-252"/>
<text text-anchor="middle" x="327" y="-229.8" font-family="Times,serif" font-size="14.00">SafeResourceUrlPipe </text>
</g>
<!-- SharedModule&#45;&gt;SafeResourceUrlPipe  -->
<g id="edge3" class="edge">
<title>SharedModule&#45;&gt;SafeResourceUrlPipe </title>
<path fill="none" stroke="black" stroke-dasharray="5,2" d="M277.1,-187.11C277.1,-187.11 277.1,-205.99 277.1,-205.99"/>
<polygon fill="black" stroke="black" points="273.6,-205.99 277.1,-215.99 280.6,-205.99 273.6,-205.99"/>
</g>
<!-- UserInterfaceModule  -->
<g id="node5" class="node">
<title>UserInterfaceModule </title>
<polygon fill="#fb8072" stroke="black" points="238.71,-252 99.29,-252 99.29,-216 238.71,-216 238.71,-252"/>
<text text-anchor="middle" x="169" y="-229.8" font-family="Times,serif" font-size="14.00">UserInterfaceModule </text>
</g>
<!-- SharedModule&#45;&gt;UserInterfaceModule  -->
<g id="edge4" class="edge">
<title>SharedModule&#45;&gt;UserInterfaceModule </title>
<path fill="none" stroke="black" stroke-dasharray="5,2" d="M218.7,-187.11C218.7,-187.11 218.7,-205.99 218.7,-205.99"/>
<polygon fill="black" stroke="black" points="215.2,-205.99 218.7,-215.99 222.2,-205.99 215.2,-205.99"/>
</g>
<!-- UserInterfaceModule -->
<g id="node3" class="node">
<title>UserInterfaceModule</title>
<polygon fill="#8dd3c7" stroke="black" points="235.71,-122 232.71,-126 211.71,-126 208.71,-122 100.29,-122 100.29,-86 235.71,-86 235.71,-122"/>
<text text-anchor="middle" x="168" y="-99.8" font-family="Times,serif" font-size="14.00">UserInterfaceModule</text>
</g>
<!-- UserInterfaceModule&#45;&gt;SharedModule -->
<g id="edge2" class="edge">
<title>UserInterfaceModule&#45;&gt;SharedModule</title>
<path fill="none" stroke="black" d="M217.32,-122.11C217.32,-122.11 217.32,-140.99 217.32,-140.99"/>
<polygon fill="black" stroke="black" points="213.82,-140.99 217.32,-150.99 220.82,-140.99 213.82,-140.99"/>
</g>
</g>
</svg>
