<?xml version="1.0" encoding="UTF-8" standalone="no"?>
<!DOCTYPE svg PUBLIC "-//W3C//DTD SVG 1.1//EN"
 "http://www.w3.org/Graphics/SVG/1.1/DTD/svg11.dtd">
<!-- Generated by graphviz version 2.46.0 (20210119.1425)
 -->
<!-- Title: dependencies Pages: 1 -->
<svg width="709pt" height="284pt"
 viewBox="0.00 0.00 709.00 284.00" xmlns="http://www.w3.org/2000/svg" xmlns:xlink="http://www.w3.org/1999/xlink">
<g id="graph0" class="graph" transform="scale(1 1) rotate(0) translate(4 280)">
<title>dependencies</title>
<polygon fill="white" stroke="transparent" points="-4,4 -4,-280 705,-280 705,4 -4,4"/>
<text text-anchor="start" x="329.51" y="-42.4" font-family="sans-serif" font-weight="bold" font-size="14.00">Legend</text>
<polygon fill="#ffffb3" stroke="transparent" points="116.5,-10 116.5,-30 136.5,-30 136.5,-10 116.5,-10"/>
<text text-anchor="start" x="140.13" y="-15.4" font-family="sans-serif" font-size="14.00"> &#160;Declarations</text>
<polygon fill="#8dd3c7" stroke="transparent" points="229.5,-10 229.5,-30 249.5,-30 249.5,-10 229.5,-10"/>
<text text-anchor="start" x="253.23" y="-15.4" font-family="sans-serif" font-size="14.00"> &#160;Module</text>
<polygon fill="#80b1d3" stroke="transparent" points="315.5,-10 315.5,-30 335.5,-30 335.5,-10 315.5,-10"/>
<text text-anchor="start" x="339.28" y="-15.4" font-family="sans-serif" font-size="14.00"> &#160;Bootstrap</text>
<polygon fill="#fdb462" stroke="transparent" points="412.5,-10 412.5,-30 432.5,-30 432.5,-10 412.5,-10"/>
<text text-anchor="start" x="436.17" y="-15.4" font-family="sans-serif" font-size="14.00"> &#160;Providers</text>
<polygon fill="#fb8072" stroke="transparent" points="508.5,-10 508.5,-30 528.5,-30 528.5,-10 508.5,-10"/>
<text text-anchor="start" x="532.23" y="-15.4" font-family="sans-serif" font-size="14.00"> &#160;Exports</text>
<g id="clust1" class="cluster">
<title>cluster_SharedModule</title>
<polygon fill="none" stroke="black" stroke-dasharray="1,5" points="8,-70 8,-268 693,-268 693,-70 8,-70"/>
</g>
<g id="clust6" class="cluster">
<title>cluster_SharedModule_imports</title>
<polygon fill="none" stroke="black" points="529,-78 529,-130 681,-130 681,-78 529,-78"/>
</g>
<g id="clust2" class="cluster">
<title>cluster_SharedModule_declarations</title>
<polygon fill="none" stroke="black" points="20,-78 20,-130 521,-130 521,-78 20,-78"/>
</g>
<g id="clust7" class="cluster">
<title>cluster_SharedModule_exports</title>
<polygon fill="none" stroke="black" points="16,-208 16,-260 685,-260 685,-208 16,-208"/>
</g>
<!-- SafeResourceUrlPipe -->
<g id="node1" class="node">
<title>SafeResourceUrlPipe</title>
<polygon fill="#ffffb3" stroke="black" points="513,-122 377,-122 377,-86 513,-86 513,-122"/>
<text text-anchor="middle" x="445" y="-99.8" font-family="Times,serif" font-size="14.00">SafeResourceUrlPipe</text>
</g>
<!-- SharedModule -->
<g id="node4" class="node">
<title>SharedModule</title>
<polygon fill="#8dd3c7" stroke="black" points="403.42,-187 400.42,-191 379.42,-191 376.42,-187 304.58,-187 304.58,-151 403.42,-151 403.42,-187"/>
<text text-anchor="middle" x="354" y="-164.8" font-family="Times,serif" font-size="14.00">SharedModule</text>
</g>
<!-- SafeResourceUrlPipe&#45;&gt;SharedModule -->
<g id="edge1" class="edge">
<title>SafeResourceUrlPipe&#45;&gt;SharedModule</title>
<path fill="none" stroke="black" d="M389.98,-122.11C389.98,-122.11 389.98,-140.99 389.98,-140.99"/>
<polygon fill="black" stroke="black" points="386.48,-140.99 389.98,-150.99 393.48,-140.99 386.48,-140.99"/>
</g>
<!-- ThemeChooserComponent -->
<g id="node2" class="node">
<title>ThemeChooserComponent</title>
<polygon fill="#ffffb3" stroke="black" points="358.36,-122 191.64,-122 191.64,-86 358.36,-86 358.36,-122"/>
<text text-anchor="middle" x="275" y="-99.8" font-family="Times,serif" font-size="14.00">ThemeChooserComponent</text>
</g>
<!-- ThemeChooserComponent&#45;&gt;SharedModule -->
<g id="edge2" class="edge">
<title>ThemeChooserComponent&#45;&gt;SharedModule</title>
<path fill="none" stroke="black" d="M331.61,-122.11C331.61,-122.11 331.61,-140.99 331.61,-140.99"/>
<polygon fill="black" stroke="black" points="328.11,-140.99 331.61,-150.99 335.11,-140.99 328.11,-140.99"/>
</g>
<!-- UserProfileComponent -->
<g id="node3" class="node">
<title>UserProfileComponent</title>
<polygon fill="#ffffb3" stroke="black" points="173.86,-122 28.14,-122 28.14,-86 173.86,-86 173.86,-122"/>
<text text-anchor="middle" x="101" y="-99.8" font-family="Times,serif" font-size="14.00">UserProfileComponent</text>
</g>
<!-- UserProfileComponent&#45;&gt;SharedModule -->
<g id="edge3" class="edge">
<title>UserProfileComponent&#45;&gt;SharedModule</title>
<path fill="none" stroke="black" d="M125.14,-122.02C125.14,-139.37 125.14,-163 125.14,-163 125.14,-163 294.62,-163 294.62,-163"/>
<polygon fill="black" stroke="black" points="294.62,-166.5 304.62,-163 294.62,-159.5 294.62,-166.5"/>
</g>
<!-- SafeResourceUrlPipe  -->
<g id="node6" class="node">
<title>SafeResourceUrlPipe </title>
<polygon fill="#fb8072" stroke="black" points="677,-252 537,-252 537,-216 677,-216 677,-252"/>
<text text-anchor="middle" x="607" y="-229.8" font-family="Times,serif" font-size="14.00">SafeResourceUrlPipe </text>
</g>
<!-- SharedModule&#45;&gt;SafeResourceUrlPipe  -->
<g id="edge5" class="edge">
<title>SharedModule&#45;&gt;SafeResourceUrlPipe </title>
<path fill="none" stroke="black" stroke-dasharray="5,2" d="M403.27,-175C470.41,-175 582.38,-175 582.38,-175 582.38,-175 582.38,-205.98 582.38,-205.98"/>
<polygon fill="black" stroke="black" points="578.88,-205.98 582.38,-215.98 585.88,-205.98 578.88,-205.98"/>
</g>
<!-- ThemeChooserComponent  -->
<g id="node7" class="node">
<title>ThemeChooserComponent </title>
<polygon fill="#fb8072" stroke="black" points="519.36,-252 348.64,-252 348.64,-216 519.36,-216 519.36,-252"/>
<text text-anchor="middle" x="434" y="-229.8" font-family="Times,serif" font-size="14.00">ThemeChooserComponent </text>
</g>
<!-- SharedModule&#45;&gt;ThemeChooserComponent  -->
<g id="edge6" class="edge">
<title>SharedModule&#45;&gt;ThemeChooserComponent </title>
<path fill="none" stroke="black" stroke-dasharray="5,2" d="M376.02,-187.11C376.02,-187.11 376.02,-205.99 376.02,-205.99"/>
<polygon fill="black" stroke="black" points="372.52,-205.99 376.02,-215.99 379.52,-205.99 372.52,-205.99"/>
</g>
<!-- UserInterfaceModule  -->
<g id="node8" class="node">
<title>UserInterfaceModule </title>
<polygon fill="#fb8072" stroke="black" points="330.71,-252 191.29,-252 191.29,-216 330.71,-216 330.71,-252"/>
<text text-anchor="middle" x="261" y="-229.8" font-family="Times,serif" font-size="14.00">UserInterfaceModule </text>
</g>
<!-- SharedModule&#45;&gt;UserInterfaceModule  -->
<g id="edge7" class="edge">
<title>SharedModule&#45;&gt;UserInterfaceModule </title>
<path fill="none" stroke="black" stroke-dasharray="5,2" d="M317.7,-187.11C317.7,-187.11 317.7,-205.99 317.7,-205.99"/>
<polygon fill="black" stroke="black" points="314.2,-205.99 317.7,-215.99 321.2,-205.99 314.2,-205.99"/>
</g>
<!-- UserProfileComponent  -->
<g id="node9" class="node">
<title>UserProfileComponent </title>
<polygon fill="#fb8072" stroke="black" points="173.86,-252 24.14,-252 24.14,-216 173.86,-216 173.86,-252"/>
<text text-anchor="middle" x="99" y="-229.8" font-family="Times,serif" font-size="14.00">UserProfileComponent </text>
</g>
<!-- SharedModule&#45;&gt;UserProfileComponent  -->
<g id="edge8" class="edge">
<title>SharedModule&#45;&gt;UserProfileComponent </title>
<path fill="none" stroke="black" stroke-dasharray="5,2" d="M304.73,-175C225.02,-175 76.61,-175 76.61,-175 76.61,-175 76.61,-205.98 76.61,-205.98"/>
<polygon fill="black" stroke="black" points="73.11,-205.98 76.61,-215.98 80.11,-205.98 73.11,-205.98"/>
</g>
<!-- UserInterfaceModule -->
<g id="node5" class="node">
<title>UserInterfaceModule</title>
<polygon fill="#8dd3c7" stroke="black" points="672.71,-122 669.71,-126 648.71,-126 645.71,-122 537.29,-122 537.29,-86 672.71,-86 672.71,-122"/>
<text text-anchor="middle" x="605" y="-99.8" font-family="Times,serif" font-size="14.00">UserInterfaceModule</text>
</g>
<!-- UserInterfaceModule&#45;&gt;SharedModule -->
<g id="edge4" class="edge">
<title>UserInterfaceModule&#45;&gt;SharedModule</title>
<path fill="none" stroke="black" d="M627.62,-122.02C627.62,-139.37 627.62,-163 627.62,-163 627.62,-163 413.23,-163 413.23,-163"/>
<polygon fill="black" stroke="black" points="413.23,-159.5 403.23,-163 413.23,-166.5 413.23,-159.5"/>
</g>
</g>
</svg>
