<?xml version="1.0" encoding="UTF-8" standalone="no"?>
<!DOCTYPE svg PUBLIC "-//W3C//DTD SVG 1.1//EN"
 "http://www.w3.org/Graphics/SVG/1.1/DTD/svg11.dtd">
<!-- Generated by graphviz version 2.46.0 (20210119.1425)
 -->
<!-- Title: dependencies Pages: 1 -->
<svg width="3311pt" height="366pt"
 viewBox="0.00 0.00 3311.00 366.00" xmlns="http://www.w3.org/2000/svg" xmlns:xlink="http://www.w3.org/1999/xlink">
<g id="graph0" class="graph" transform="scale(1 1) rotate(0) translate(4 362)">
<title>dependencies</title>
<polygon fill="white" stroke="transparent" points="-4,4 -4,-362 3307,-362 3307,4 -4,4"/>
<text text-anchor="start" x="1630.51" y="-42.4" font-family="sans-serif" font-weight="bold" font-size="14.00">Legend</text>
<polygon fill="#ffffb3" stroke="transparent" points="1417.5,-10 1417.5,-30 1437.5,-30 1437.5,-10 1417.5,-10"/>
<text text-anchor="start" x="1441.13" y="-15.4" font-family="sans-serif" font-size="14.00"> &#160;Declarations</text>
<polygon fill="#8dd3c7" stroke="transparent" points="1530.5,-10 1530.5,-30 1550.5,-30 1550.5,-10 1530.5,-10"/>
<text text-anchor="start" x="1554.23" y="-15.4" font-family="sans-serif" font-size="14.00"> &#160;Module</text>
<polygon fill="#80b1d3" stroke="transparent" points="1616.5,-10 1616.5,-30 1636.5,-30 1636.5,-10 1616.5,-10"/>
<text text-anchor="start" x="1640.28" y="-15.4" font-family="sans-serif" font-size="14.00"> &#160;Bootstrap</text>
<polygon fill="#fdb462" stroke="transparent" points="1713.5,-10 1713.5,-30 1733.5,-30 1733.5,-10 1713.5,-10"/>
<text text-anchor="start" x="1737.17" y="-15.4" font-family="sans-serif" font-size="14.00"> &#160;Providers</text>
<polygon fill="#fb8072" stroke="transparent" points="1809.5,-10 1809.5,-30 1829.5,-30 1829.5,-10 1809.5,-10"/>
<text text-anchor="start" x="1833.23" y="-15.4" font-family="sans-serif" font-size="14.00"> &#160;Exports</text>
<g id="clust1" class="cluster">
<title>cluster_AppModule</title>
<polygon fill="none" stroke="black" stroke-dasharray="1,5" points="680,-146 680,-350 2093,-350 2093,-146 680,-146"/>
</g>
<g id="clust2" class="cluster">
<title>cluster_AppModule_declarations</title>
<polygon fill="none" stroke="black" points="868,-154 868,-206 1711,-206 1711,-154 868,-154"/>
</g>
<g id="clust9" class="cluster">
<title>cluster_AppModule_imports</title>
<polygon fill="none" stroke="black" points="1719,-154 1719,-206 2085,-206 2085,-154 1719,-154"/>
</g>
<g id="clust11" class="cluster">
<title>cluster_AppModule_bootstrap</title>
<polygon fill="none" stroke="black" points="1374,-290 1374,-342 1498,-342 1498,-290 1374,-290"/>
</g>
<g id="clust12" class="cluster">
<title>cluster_AppModule_providers</title>
<polygon fill="none" stroke="black" points="688,-154 688,-206 860,-206 860,-154 688,-154"/>
</g>
<g id="clust19" class="cluster">
<title>cluster_CoreModule</title>
<polygon fill="none" stroke="black" stroke-dasharray="1,5" points="1815,-70 1815,-138 1983,-138 1983,-70 1815,-70"/>
</g>
<g id="clust21" class="cluster">
<title>cluster_CoreModule_imports</title>
<polygon fill="none" stroke="black" points="1823,-78 1823,-130 1975,-130 1975,-78 1823,-78"/>
</g>
<g id="clust31" class="cluster">
<title>cluster_HomeModule</title>
<polygon fill="none" stroke="black" stroke-dasharray="1,5" points="8,-146 8,-274 672,-274 672,-146 8,-146"/>
</g>
<g id="clust32" class="cluster">
<title>cluster_HomeModule_declarations</title>
<polygon fill="none" stroke="black" points="178,-154 178,-206 664,-206 664,-154 178,-154"/>
</g>
<g id="clust36" class="cluster">
<title>cluster_HomeModule_imports</title>
<polygon fill="none" stroke="black" points="16,-154 16,-206 170,-206 170,-154 16,-154"/>
</g>
<g id="clust46" class="cluster">
<title>cluster_SharedModule</title>
<polygon fill="none" stroke="black" stroke-dasharray="1,5" points="2101,-214 2101,-282 3295,-282 3295,-214 2101,-214"/>
</g>
<g id="clust47" class="cluster">
<title>cluster_SharedModule_declarations</title>
<polygon fill="none" stroke="black" points="2786,-222 2786,-274 3287,-274 3287,-222 2786,-222"/>
</g>
<g id="clust52" class="cluster">
<title>cluster_SharedModule_exports</title>
<polygon fill="none" stroke="black" points="2109,-222 2109,-274 2778,-274 2778,-222 2109,-222"/>
</g>
<!-- AppComponent -->
<g id="node1" class="node">
<title>AppComponent</title>
<polygon fill="#ffffb3" stroke="black" points="1155.94,-198 1050.06,-198 1050.06,-162 1155.94,-162 1155.94,-198"/>
<text text-anchor="middle" x="1103" y="-175.8" font-family="Times,serif" font-size="14.00">AppComponent</text>
</g>
<!-- AppModule -->
<g id="node7" class="node">
<title>AppModule</title>
<polygon fill="#8dd3c7" stroke="black" points="1477.66,-266 1474.66,-270 1453.66,-270 1450.66,-266 1394.34,-266 1394.34,-230 1477.66,-230 1477.66,-266"/>
<text text-anchor="middle" x="1436" y="-243.8" font-family="Times,serif" font-size="14.00">AppModule</text>
</g>
<!-- AppComponent&#45;&gt;AppModule -->
<g id="edge1" class="edge">
<title>AppComponent&#45;&gt;AppModule</title>
<path fill="none" stroke="black" d="M1103,-198.27C1103,-216.56 1103,-242 1103,-242 1103,-242 1384.16,-242 1384.16,-242"/>
<polygon fill="black" stroke="black" points="1384.16,-245.5 1394.16,-242 1384.16,-238.5 1384.16,-245.5"/>
</g>
<!-- AuthRedirectComponent -->
<g id="node2" class="node">
<title>AuthRedirectComponent</title>
<polygon fill="#ffffb3" stroke="black" points="1032.25,-198 875.75,-198 875.75,-162 1032.25,-162 1032.25,-198"/>
<text text-anchor="middle" x="954" y="-175.8" font-family="Times,serif" font-size="14.00">AuthRedirectComponent</text>
</g>
<!-- AuthRedirectComponent&#45;&gt;AppModule -->
<g id="edge2" class="edge">
<title>AuthRedirectComponent&#45;&gt;AppModule</title>
<path fill="none" stroke="black" d="M954,-198.22C954,-218.37 954,-248 954,-248 954,-248 1384.07,-248 1384.07,-248"/>
<polygon fill="black" stroke="black" points="1384.07,-251.5 1394.07,-248 1384.07,-244.5 1384.07,-251.5"/>
</g>
<!-- FooterComponent -->
<g id="node3" class="node">
<title>FooterComponent</title>
<polygon fill="#ffffb3" stroke="black" points="1702.88,-198 1585.12,-198 1585.12,-162 1702.88,-162 1702.88,-198"/>
<text text-anchor="middle" x="1644" y="-175.8" font-family="Times,serif" font-size="14.00">FooterComponent</text>
</g>
<!-- FooterComponent&#45;&gt;AppModule -->
<g id="edge3" class="edge">
<title>FooterComponent&#45;&gt;AppModule</title>
<path fill="none" stroke="black" d="M1644,-198.03C1644,-214.4 1644,-236 1644,-236 1644,-236 1488.09,-236 1488.09,-236"/>
<polygon fill="black" stroke="black" points="1488.09,-232.5 1478.09,-236 1488.09,-239.5 1488.09,-232.5"/>
</g>
<!-- HeaderComponent -->
<g id="node4" class="node">
<title>HeaderComponent</title>
<polygon fill="#ffffb3" stroke="black" points="1566.74,-198 1445.26,-198 1445.26,-162 1566.74,-162 1566.74,-198"/>
<text text-anchor="middle" x="1506" y="-175.8" font-family="Times,serif" font-size="14.00">HeaderComponent</text>
</g>
<!-- HeaderComponent&#45;&gt;AppModule -->
<g id="edge4" class="edge">
<title>HeaderComponent&#45;&gt;AppModule</title>
<path fill="none" stroke="black" d="M1461.48,-198.22C1461.48,-198.22 1461.48,-219.73 1461.48,-219.73"/>
<polygon fill="black" stroke="black" points="1457.98,-219.73 1461.48,-229.73 1464.98,-219.73 1457.98,-219.73"/>
</g>
<!-- LayoutComponent -->
<g id="node5" class="node">
<title>LayoutComponent</title>
<polygon fill="#ffffb3" stroke="black" points="1427.49,-198 1306.51,-198 1306.51,-162 1427.49,-162 1427.49,-198"/>
<text text-anchor="middle" x="1367" y="-175.8" font-family="Times,serif" font-size="14.00">LayoutComponent</text>
</g>
<!-- LayoutComponent&#45;&gt;AppModule -->
<g id="edge5" class="edge">
<title>LayoutComponent&#45;&gt;AppModule</title>
<path fill="none" stroke="black" d="M1410.83,-198.22C1410.83,-198.22 1410.83,-219.73 1410.83,-219.73"/>
<polygon fill="black" stroke="black" points="1407.33,-219.73 1410.83,-229.73 1414.33,-219.73 1407.33,-219.73"/>
</g>
<!-- LoginComponent -->
<g id="node6" class="node">
<title>LoginComponent</title>
<polygon fill="#ffffb3" stroke="black" points="1288.28,-198 1173.72,-198 1173.72,-162 1288.28,-162 1288.28,-198"/>
<text text-anchor="middle" x="1231" y="-175.8" font-family="Times,serif" font-size="14.00">LoginComponent</text>
</g>
<!-- LoginComponent&#45;&gt;AppModule -->
<g id="edge6" class="edge">
<title>LoginComponent&#45;&gt;AppModule</title>
<path fill="none" stroke="black" d="M1231,-198.03C1231,-214.4 1231,-236 1231,-236 1231,-236 1384.02,-236 1384.02,-236"/>
<polygon fill="black" stroke="black" points="1384.02,-239.5 1394.02,-236 1384.02,-232.5 1384.02,-239.5"/>
</g>
<!-- AppComponent  -->
<g id="node11" class="node">
<title>AppComponent </title>
<polygon fill="#80b1d3" stroke="black" points="1490.44,-334 1381.56,-334 1381.56,-298 1490.44,-298 1490.44,-334"/>
<text text-anchor="middle" x="1436" y="-311.8" font-family="Times,serif" font-size="14.00">AppComponent </text>
</g>
<!-- AppModule&#45;&gt;AppComponent  -->
<g id="edge10" class="edge">
<title>AppModule&#45;&gt;AppComponent </title>
<path fill="none" stroke="black" stroke-dasharray="1,5" d="M1436,-266.22C1436,-266.22 1436,-287.73 1436,-287.73"/>
<polygon fill="black" stroke="black" points="1432.5,-287.73 1436,-297.73 1439.5,-287.73 1432.5,-287.73"/>
</g>
<!-- AppRoutingModule -->
<g id="node8" class="node">
<title>AppRoutingModule</title>
<polygon fill="#8dd3c7" stroke="black" points="1960.27,-198 1957.27,-202 1936.27,-202 1933.27,-198 1831.73,-198 1831.73,-162 1960.27,-162 1960.27,-198"/>
<text text-anchor="middle" x="1896" y="-175.8" font-family="Times,serif" font-size="14.00">AppRoutingModule</text>
</g>
<!-- AppRoutingModule&#45;&gt;AppModule -->
<g id="edge7" class="edge">
<title>AppRoutingModule&#45;&gt;AppModule</title>
<path fill="none" stroke="black" d="M1896,-198.22C1896,-218.37 1896,-248 1896,-248 1896,-248 1488.04,-248 1488.04,-248"/>
<polygon fill="black" stroke="black" points="1488.04,-244.5 1478.04,-248 1488.04,-251.5 1488.04,-244.5"/>
</g>
<!-- CoreModule -->
<g id="node9" class="node">
<title>CoreModule</title>
<polygon fill="#8dd3c7" stroke="black" points="1813.26,-198 1810.26,-202 1789.26,-202 1786.26,-198 1726.74,-198 1726.74,-162 1813.26,-162 1813.26,-198"/>
<text text-anchor="middle" x="1770" y="-175.8" font-family="Times,serif" font-size="14.00">CoreModule</text>
</g>
<!-- CoreModule&#45;&gt;AppModule -->
<g id="edge8" class="edge">
<title>CoreModule&#45;&gt;AppModule</title>
<path fill="none" stroke="black" d="M1770,-198.27C1770,-216.56 1770,-242 1770,-242 1770,-242 1487.96,-242 1487.96,-242"/>
<polygon fill="black" stroke="black" points="1487.96,-238.5 1477.96,-242 1487.96,-245.5 1487.96,-238.5"/>
</g>
<!-- SharedModule -->
<g id="node10" class="node">
<title>SharedModule</title>
<polygon fill="#8dd3c7" stroke="black" points="2077.42,-198 2074.42,-202 2053.42,-202 2050.42,-198 1978.58,-198 1978.58,-162 2077.42,-162 2077.42,-198"/>
<text text-anchor="middle" x="2028" y="-175.8" font-family="Times,serif" font-size="14.00">SharedModule</text>
</g>
<!-- SharedModule&#45;&gt;AppModule -->
<g id="edge9" class="edge">
<title>SharedModule&#45;&gt;AppModule</title>
<path fill="none" stroke="black" d="M2028,-198.29C2028,-220.21 2028,-254 2028,-254 2028,-254 1488.1,-254 1488.1,-254"/>
<polygon fill="black" stroke="black" points="1488.1,-250.5 1478.1,-254 1488.1,-257.5 1488.1,-250.5"/>
</g>
<!-- HomeModule -->
<g id="node17" class="node">
<title>HomeModule</title>
<polygon fill="#8dd3c7" stroke="black" points="439.76,-266 436.76,-270 415.76,-270 412.76,-266 346.24,-266 346.24,-230 439.76,-230 439.76,-266"/>
<text text-anchor="middle" x="393" y="-243.8" font-family="Times,serif" font-size="14.00">HomeModule</text>
</g>
<!-- SharedModule&#45;&gt;HomeModule -->
<g id="edge17" class="edge">
<title>SharedModule&#45;&gt;HomeModule</title>
<path fill="none" stroke="black" d="M2003.39,-198.19C2003.39,-206.28 2003.39,-214 2003.39,-214 2003.39,-214 408.63,-214 408.63,-214 408.63,-214 408.63,-219.81 408.63,-219.81"/>
<polygon fill="black" stroke="black" points="405.13,-219.81 408.63,-229.81 412.13,-219.81 405.13,-219.81"/>
</g>
<!-- SafeResourceUrlPipe  -->
<g id="node22" class="node">
<title>SafeResourceUrlPipe </title>
<polygon fill="#fb8072" stroke="black" points="2257,-266 2117,-266 2117,-230 2257,-230 2257,-266"/>
<text text-anchor="middle" x="2187" y="-243.8" font-family="Times,serif" font-size="14.00">SafeResourceUrlPipe </text>
</g>
<!-- SharedModule&#45;&gt;SafeResourceUrlPipe  -->
<g id="edge22" class="edge">
<title>SharedModule&#45;&gt;SafeResourceUrlPipe </title>
<path fill="none" stroke="black" stroke-dasharray="5,2" d="M2052.61,-198.15C2052.61,-221.76 2052.61,-260 2052.61,-260 2052.61,-260 2106.65,-260 2106.65,-260"/>
<polygon fill="black" stroke="black" points="2106.65,-263.5 2116.65,-260 2106.65,-256.5 2106.65,-263.5"/>
</g>
<!-- ThemeChooserComponent  -->
<g id="node23" class="node">
<title>ThemeChooserComponent </title>
<polygon fill="#fb8072" stroke="black" points="2770.36,-266 2599.64,-266 2599.64,-230 2770.36,-230 2770.36,-266"/>
<text text-anchor="middle" x="2685" y="-243.8" font-family="Times,serif" font-size="14.00">ThemeChooserComponent </text>
</g>
<!-- SharedModule&#45;&gt;ThemeChooserComponent  -->
<g id="edge23" class="edge">
<title>SharedModule&#45;&gt;ThemeChooserComponent </title>
<path fill="none" stroke="black" stroke-dasharray="5,2" d="M2077.38,-183C2230.17,-183 2685,-183 2685,-183 2685,-183 2685,-219.89 2685,-219.89"/>
<polygon fill="black" stroke="black" points="2681.5,-219.89 2685,-229.89 2688.5,-219.89 2681.5,-219.89"/>
</g>
<!-- UserInterfaceModule  -->
<g id="node24" class="node">
<title>UserInterfaceModule </title>
<polygon fill="#fb8072" stroke="black" points="2581.71,-266 2442.29,-266 2442.29,-230 2581.71,-230 2581.71,-266"/>
<text text-anchor="middle" x="2512" y="-243.8" font-family="Times,serif" font-size="14.00">UserInterfaceModule </text>
</g>
<!-- SharedModule&#45;&gt;UserInterfaceModule  -->
<g id="edge24" class="edge">
<title>SharedModule&#45;&gt;UserInterfaceModule </title>
<path fill="none" stroke="black" stroke-dasharray="5,2" d="M2077.52,-188C2200.88,-188 2512,-188 2512,-188 2512,-188 2512,-220 2512,-220"/>
<polygon fill="black" stroke="black" points="2508.5,-220 2512,-230 2515.5,-220 2508.5,-220"/>
</g>
<!-- UserProfileComponent  -->
<g id="node25" class="node">
<title>UserProfileComponent </title>
<polygon fill="#fb8072" stroke="black" points="2424.86,-266 2275.14,-266 2275.14,-230 2424.86,-230 2424.86,-266"/>
<text text-anchor="middle" x="2350" y="-243.8" font-family="Times,serif" font-size="14.00">UserProfileComponent </text>
</g>
<!-- SharedModule&#45;&gt;UserProfileComponent  -->
<g id="edge25" class="edge">
<title>SharedModule&#45;&gt;UserProfileComponent </title>
<path fill="none" stroke="black" stroke-dasharray="5,2" d="M2077.26,-193C2167.46,-193 2350,-193 2350,-193 2350,-193 2350,-219.99 2350,-219.99"/>
<polygon fill="black" stroke="black" points="2346.5,-219.99 2350,-229.99 2353.5,-219.99 2346.5,-219.99"/>
</g>
<!-- TokenInterceptor -->
<g id="node12" class="node">
<title>TokenInterceptor</title>
<ellipse fill="#fdb462" stroke="black" cx="774" cy="-180" rx="78.13" ry="18"/>
<text text-anchor="middle" x="774" y="-175.8" font-family="Times,serif" font-size="14.00">TokenInterceptor</text>
</g>
<!-- TokenInterceptor&#45;&gt;AppModule -->
<g id="edge11" class="edge">
<title>TokenInterceptor&#45;&gt;AppModule</title>
<path fill="none" stroke="black" d="M774,-198.29C774,-220.21 774,-254 774,-254 774,-254 1384.34,-254 1384.34,-254"/>
<polygon fill="black" stroke="black" points="1384.34,-257.5 1394.34,-254 1384.34,-250.5 1384.34,-257.5"/>
</g>
<!-- UserInterfaceModule -->
<g id="node13" class="node">
<title>UserInterfaceModule</title>
<polygon fill="#8dd3c7" stroke="black" points="1966.71,-122 1963.71,-126 1942.71,-126 1939.71,-122 1831.29,-122 1831.29,-86 1966.71,-86 1966.71,-122"/>
<text text-anchor="middle" x="1899" y="-99.8" font-family="Times,serif" font-size="14.00">UserInterfaceModule</text>
</g>
<!-- UserInterfaceModule&#45;&gt;CoreModule -->
<g id="edge12" class="edge">
<title>UserInterfaceModule&#45;&gt;CoreModule</title>
<path fill="none" stroke="black" d="M1831.1,-104C1800.02,-104 1770,-104 1770,-104 1770,-104 1770,-151.99 1770,-151.99"/>
<polygon fill="black" stroke="black" points="1766.5,-151.99 1770,-161.99 1773.5,-151.99 1766.5,-151.99"/>
</g>
<!-- UserInterfaceModule&#45;&gt;SharedModule -->
<g id="edge21" class="edge">
<title>UserInterfaceModule&#45;&gt;SharedModule</title>
<path fill="none" stroke="black" d="M1966.9,-104C1997.98,-104 2028,-104 2028,-104 2028,-104 2028,-151.99 2028,-151.99"/>
<polygon fill="black" stroke="black" points="2024.5,-151.99 2028,-161.99 2031.5,-151.99 2024.5,-151.99"/>
</g>
<!-- DashboardComponent -->
<g id="node14" class="node">
<title>DashboardComponent</title>
<polygon fill="#ffffb3" stroke="black" points="463.97,-198 322.03,-198 322.03,-162 463.97,-162 463.97,-198"/>
<text text-anchor="middle" x="393" y="-175.8" font-family="Times,serif" font-size="14.00">DashboardComponent</text>
</g>
<!-- DashboardComponent&#45;&gt;HomeModule -->
<g id="edge13" class="edge">
<title>DashboardComponent&#45;&gt;HomeModule</title>
<path fill="none" stroke="black" d="M377.37,-198.22C377.37,-198.22 377.37,-219.73 377.37,-219.73"/>
<polygon fill="black" stroke="black" points="373.87,-219.73 377.37,-229.73 380.87,-219.73 373.87,-219.73"/>
</g>
<!-- ServerComponent -->
<g id="node15" class="node">
<title>ServerComponent</title>
<polygon fill="#ffffb3" stroke="black" points="303.87,-198 186.13,-198 186.13,-162 303.87,-162 303.87,-198"/>
<text text-anchor="middle" x="245" y="-175.8" font-family="Times,serif" font-size="14.00">ServerComponent</text>
</g>
<!-- ServerComponent&#45;&gt;HomeModule -->
<g id="edge14" class="edge">
<title>ServerComponent&#45;&gt;HomeModule</title>
<path fill="none" stroke="black" d="M245,-198.27C245,-216.56 245,-242 245,-242 245,-242 336.17,-242 336.17,-242"/>
<polygon fill="black" stroke="black" points="336.17,-245.5 346.17,-242 336.17,-238.5 336.17,-245.5"/>
</g>
<!-- UserPreferencesComponent -->
<g id="node16" class="node">
<title>UserPreferencesComponent</title>
<polygon fill="#ffffb3" stroke="black" points="655.54,-198 482.46,-198 482.46,-162 655.54,-162 655.54,-198"/>
<text text-anchor="middle" x="569" y="-175.8" font-family="Times,serif" font-size="14.00">UserPreferencesComponent</text>
</g>
<!-- UserPreferencesComponent&#45;&gt;HomeModule -->
<g id="edge15" class="edge">
<title>UserPreferencesComponent&#45;&gt;HomeModule</title>
<path fill="none" stroke="black" d="M569,-198.15C569,-221.76 569,-260 569,-260 569,-260 450.16,-260 450.16,-260"/>
<polygon fill="black" stroke="black" points="450.16,-256.5 440.16,-260 450.16,-263.5 450.16,-256.5"/>
</g>
<!-- HomeRoutingModule -->
<g id="node18" class="node">
<title>HomeRoutingModule</title>
<polygon fill="#8dd3c7" stroke="black" points="162.38,-198 159.38,-202 138.38,-202 135.38,-198 23.62,-198 23.62,-162 162.38,-162 162.38,-198"/>
<text text-anchor="middle" x="93" y="-175.8" font-family="Times,serif" font-size="14.00">HomeRoutingModule</text>
</g>
<!-- HomeRoutingModule&#45;&gt;HomeModule -->
<g id="edge16" class="edge">
<title>HomeRoutingModule&#45;&gt;HomeModule</title>
<path fill="none" stroke="black" d="M93,-198.29C93,-220.21 93,-254 93,-254 93,-254 336.12,-254 336.12,-254"/>
<polygon fill="black" stroke="black" points="336.13,-257.5 346.12,-254 336.12,-250.5 336.13,-257.5"/>
</g>
<!-- SafeResourceUrlPipe -->
<g id="node19" class="node">
<title>SafeResourceUrlPipe</title>
<polygon fill="#ffffb3" stroke="black" points="3279,-266 3143,-266 3143,-230 3279,-230 3279,-266"/>
<text text-anchor="middle" x="3211" y="-243.8" font-family="Times,serif" font-size="14.00">SafeResourceUrlPipe</text>
</g>
<!-- SafeResourceUrlPipe&#45;&gt;SharedModule -->
<g id="edge18" class="edge">
<title>SafeResourceUrlPipe&#45;&gt;SharedModule</title>
<path fill="none" stroke="black" d="M3211,-229.85C3211,-206.24 3211,-168 3211,-168 3211,-168 2087.33,-168 2087.33,-168"/>
<polygon fill="black" stroke="black" points="2087.33,-164.5 2077.33,-168 2087.33,-171.5 2087.33,-164.5"/>
</g>
<!-- ThemeChooserComponent -->
<g id="node20" class="node">
<title>ThemeChooserComponent</title>
<polygon fill="#ffffb3" stroke="black" points="3124.36,-266 2957.64,-266 2957.64,-230 3124.36,-230 3124.36,-266"/>
<text text-anchor="middle" x="3041" y="-243.8" font-family="Times,serif" font-size="14.00">ThemeChooserComponent</text>
</g>
<!-- ThemeChooserComponent&#45;&gt;SharedModule -->
<g id="edge19" class="edge">
<title>ThemeChooserComponent&#45;&gt;SharedModule</title>
<path fill="none" stroke="black" d="M3041,-229.84C3041,-207.65 3041,-173 3041,-173 3041,-173 2087.54,-173 2087.54,-173"/>
<polygon fill="black" stroke="black" points="2087.54,-169.5 2077.54,-173 2087.54,-176.5 2087.54,-169.5"/>
</g>
<!-- UserProfileComponent -->
<g id="node21" class="node">
<title>UserProfileComponent</title>
<polygon fill="#ffffb3" stroke="black" points="2939.86,-266 2794.14,-266 2794.14,-230 2939.86,-230 2939.86,-266"/>
<text text-anchor="middle" x="2867" y="-243.8" font-family="Times,serif" font-size="14.00">UserProfileComponent</text>
</g>
<!-- UserProfileComponent&#45;&gt;SharedModule -->
<g id="edge20" class="edge">
<title>UserProfileComponent&#45;&gt;SharedModule</title>
<path fill="none" stroke="black" d="M2867,-229.97C2867,-209.23 2867,-178 2867,-178 2867,-178 2087.35,-178 2087.35,-178"/>
<polygon fill="black" stroke="black" points="2087.35,-174.5 2077.35,-178 2087.35,-181.5 2087.35,-174.5"/>
</g>
</g>
</svg>
