<?xml version="1.0" encoding="UTF-8" standalone="no"?>
<!DOCTYPE svg PUBLIC "-//W3C//DTD SVG 1.1//EN"
 "http://www.w3.org/Graphics/SVG/1.1/DTD/svg11.dtd">
<!-- Generated by graphviz version 2.46.0 (20210119.1425)
 -->
<!-- Title: dependencies Pages: 1 -->
<svg width="2580pt" height="366pt"
 viewBox="0.00 0.00 2580.00 366.00" xmlns="http://www.w3.org/2000/svg" xmlns:xlink="http://www.w3.org/1999/xlink">
<g id="graph0" class="graph" transform="scale(1 1) rotate(0) translate(4 362)">
<title>dependencies</title>
<polygon fill="white" stroke="transparent" points="-4,4 -4,-362 2576,-362 2576,4 -4,4"/>
<text text-anchor="start" x="1265.01" y="-42.4" font-family="sans-serif" font-weight="bold" font-size="14.00">Legend</text>
<polygon fill="#ffffb3" stroke="transparent" points="1052,-10 1052,-30 1072,-30 1072,-10 1052,-10"/>
<text text-anchor="start" x="1075.63" y="-15.4" font-family="sans-serif" font-size="14.00"> &#160;Declarations</text>
<polygon fill="#8dd3c7" stroke="transparent" points="1165,-10 1165,-30 1185,-30 1185,-10 1165,-10"/>
<text text-anchor="start" x="1188.73" y="-15.4" font-family="sans-serif" font-size="14.00"> &#160;Module</text>
<polygon fill="#80b1d3" stroke="transparent" points="1251,-10 1251,-30 1271,-30 1271,-10 1251,-10"/>
<text text-anchor="start" x="1274.78" y="-15.4" font-family="sans-serif" font-size="14.00"> &#160;Bootstrap</text>
<polygon fill="#fdb462" stroke="transparent" points="1348,-10 1348,-30 1368,-30 1368,-10 1348,-10"/>
<text text-anchor="start" x="1371.67" y="-15.4" font-family="sans-serif" font-size="14.00"> &#160;Providers</text>
<polygon fill="#fb8072" stroke="transparent" points="1444,-10 1444,-30 1464,-30 1464,-10 1444,-10"/>
<text text-anchor="start" x="1467.73" y="-15.4" font-family="sans-serif" font-size="14.00"> &#160;Exports</text>
<g id="clust1" class="cluster">
<title>cluster_AppModule</title>
<polygon fill="none" stroke="black" stroke-dasharray="1,5" points="488,-146 488,-350 2066,-350 2066,-146 488,-146"/>
</g>
<g id="clust2" class="cluster">
<title>cluster_AppModule_declarations</title>
<polygon fill="none" stroke="black" points="676,-154 676,-206 1684,-206 1684,-154 676,-154"/>
</g>
<g id="clust10" class="cluster">
<title>cluster_AppModule_imports</title>
<polygon fill="none" stroke="black" points="1692,-154 1692,-206 2058,-206 2058,-154 1692,-154"/>
</g>
<g id="clust12" class="cluster">
<title>cluster_AppModule_bootstrap</title>
<polygon fill="none" stroke="black" points="1242,-290 1242,-342 1366,-342 1366,-290 1242,-290"/>
</g>
<g id="clust13" class="cluster">
<title>cluster_AppModule_providers</title>
<polygon fill="none" stroke="black" points="496,-154 496,-206 668,-206 668,-154 496,-154"/>
</g>
<g id="clust20" class="cluster">
<title>cluster_CoreModule</title>
<polygon fill="none" stroke="black" stroke-dasharray="1,5" points="1788,-70 1788,-138 1956,-138 1956,-70 1788,-70"/>
</g>
<g id="clust22" class="cluster">
<title>cluster_CoreModule_imports</title>
<polygon fill="none" stroke="black" points="1796,-78 1796,-130 1948,-130 1948,-78 1796,-78"/>
</g>
<g id="clust32" class="cluster">
<title>cluster_HomeModule</title>
<polygon fill="none" stroke="black" stroke-dasharray="1,5" points="8,-146 8,-274 480,-274 480,-146 8,-146"/>
</g>
<g id="clust33" class="cluster">
<title>cluster_HomeModule_declarations</title>
<polygon fill="none" stroke="black" points="178,-154 178,-206 472,-206 472,-154 178,-154"/>
</g>
<g id="clust36" class="cluster">
<title>cluster_HomeModule_imports</title>
<polygon fill="none" stroke="black" points="16,-154 16,-206 170,-206 170,-154 16,-154"/>
</g>
<g id="clust46" class="cluster">
<title>cluster_SharedModule</title>
<polygon fill="none" stroke="black" stroke-dasharray="1,5" points="2074,-214 2074,-282 2564,-282 2564,-214 2074,-214"/>
</g>
<g id="clust47" class="cluster">
<title>cluster_SharedModule_declarations</title>
<polygon fill="none" stroke="black" points="2404,-222 2404,-274 2556,-274 2556,-222 2404,-222"/>
</g>
<g id="clust50" class="cluster">
<title>cluster_SharedModule_exports</title>
<polygon fill="none" stroke="black" points="2082,-222 2082,-274 2396,-274 2396,-222 2082,-222"/>
</g>
<!-- AppComponent -->
<g id="node1" class="node">
<title>AppComponent</title>
<polygon fill="#ffffb3" stroke="black" points="1675.94,-198 1570.06,-198 1570.06,-162 1675.94,-162 1675.94,-198"/>
<text text-anchor="middle" x="1623" y="-175.8" font-family="Times,serif" font-size="14.00">AppComponent</text>
</g>
<!-- AppModule -->
<g id="node8" class="node">
<title>AppModule</title>
<polygon fill="#8dd3c7" stroke="black" points="1345.66,-266 1342.66,-270 1321.66,-270 1318.66,-266 1262.34,-266 1262.34,-230 1345.66,-230 1345.66,-266"/>
<text text-anchor="middle" x="1304" y="-243.8" font-family="Times,serif" font-size="14.00">AppModule</text>
</g>
<!-- AppComponent&#45;&gt;AppModule -->
<g id="edge1" class="edge">
<title>AppComponent&#45;&gt;AppModule</title>
<path fill="none" stroke="black" d="M1623,-198.3C1623,-216.27 1623,-241 1623,-241 1623,-241 1355.7,-241 1355.7,-241"/>
<polygon fill="black" stroke="black" points="1355.7,-237.5 1345.7,-241 1355.7,-244.5 1355.7,-237.5"/>
</g>
<!-- AuthRedirectComponent -->
<g id="node2" class="node">
<title>AuthRedirectComponent</title>
<polygon fill="#ffffb3" stroke="black" points="1552.25,-198 1395.75,-198 1395.75,-162 1552.25,-162 1552.25,-198"/>
<text text-anchor="middle" x="1474" y="-175.8" font-family="Times,serif" font-size="14.00">AuthRedirectComponent</text>
</g>
<!-- AuthRedirectComponent&#45;&gt;AppModule -->
<g id="edge2" class="edge">
<title>AuthRedirectComponent&#45;&gt;AppModule</title>
<path fill="none" stroke="black" d="M1474,-198.03C1474,-214.4 1474,-236 1474,-236 1474,-236 1356.02,-236 1356.02,-236"/>
<polygon fill="black" stroke="black" points="1356.02,-232.5 1346.02,-236 1356.02,-239.5 1356.02,-232.5"/>
</g>
<!-- AuthRedirectContainer -->
<g id="node3" class="node">
<title>AuthRedirectContainer</title>
<polygon fill="#ffffb3" stroke="black" points="1377.13,-198 1230.87,-198 1230.87,-162 1377.13,-162 1377.13,-198"/>
<text text-anchor="middle" x="1304" y="-175.8" font-family="Times,serif" font-size="14.00">AuthRedirectContainer</text>
</g>
<!-- AuthRedirectContainer&#45;&gt;AppModule -->
<g id="edge3" class="edge">
<title>AuthRedirectContainer&#45;&gt;AppModule</title>
<path fill="none" stroke="black" d="M1304,-198.22C1304,-198.22 1304,-219.73 1304,-219.73"/>
<polygon fill="black" stroke="black" points="1300.5,-219.73 1304,-229.73 1307.5,-219.73 1300.5,-219.73"/>
</g>
<!-- FooterComponent -->
<g id="node4" class="node">
<title>FooterComponent</title>
<polygon fill="#ffffb3" stroke="black" points="1212.88,-198 1095.12,-198 1095.12,-162 1212.88,-162 1212.88,-198"/>
<text text-anchor="middle" x="1154" y="-175.8" font-family="Times,serif" font-size="14.00">FooterComponent</text>
</g>
<!-- FooterComponent&#45;&gt;AppModule -->
<g id="edge4" class="edge">
<title>FooterComponent&#45;&gt;AppModule</title>
<path fill="none" stroke="black" d="M1154,-198.03C1154,-214.4 1154,-236 1154,-236 1154,-236 1252.22,-236 1252.22,-236"/>
<polygon fill="black" stroke="black" points="1252.22,-239.5 1262.22,-236 1252.22,-232.5 1252.22,-239.5"/>
</g>
<!-- HeaderComponent -->
<g id="node5" class="node">
<title>HeaderComponent</title>
<polygon fill="#ffffb3" stroke="black" points="1076.74,-198 955.26,-198 955.26,-162 1076.74,-162 1076.74,-198"/>
<text text-anchor="middle" x="1016" y="-175.8" font-family="Times,serif" font-size="14.00">HeaderComponent</text>
</g>
<!-- HeaderComponent&#45;&gt;AppModule -->
<g id="edge5" class="edge">
<title>HeaderComponent&#45;&gt;AppModule</title>
<path fill="none" stroke="black" d="M1016,-198.27C1016,-216.56 1016,-242 1016,-242 1016,-242 1252.12,-242 1252.12,-242"/>
<polygon fill="black" stroke="black" points="1252.12,-245.5 1262.12,-242 1252.12,-238.5 1252.12,-245.5"/>
</g>
<!-- LayoutComponent -->
<g id="node6" class="node">
<title>LayoutComponent</title>
<polygon fill="#ffffb3" stroke="black" points="937.49,-198 816.51,-198 816.51,-162 937.49,-162 937.49,-198"/>
<text text-anchor="middle" x="877" y="-175.8" font-family="Times,serif" font-size="14.00">LayoutComponent</text>
</g>
<!-- LayoutComponent&#45;&gt;AppModule -->
<g id="edge6" class="edge">
<title>LayoutComponent&#45;&gt;AppModule</title>
<path fill="none" stroke="black" d="M877,-198.22C877,-218.37 877,-248 877,-248 877,-248 1252.28,-248 1252.28,-248"/>
<polygon fill="black" stroke="black" points="1252.28,-251.5 1262.28,-248 1252.28,-244.5 1252.28,-251.5"/>
</g>
<!-- LoginComponent -->
<g id="node7" class="node">
<title>LoginComponent</title>
<polygon fill="#ffffb3" stroke="black" points="798.28,-198 683.72,-198 683.72,-162 798.28,-162 798.28,-198"/>
<text text-anchor="middle" x="741" y="-175.8" font-family="Times,serif" font-size="14.00">LoginComponent</text>
</g>
<!-- LoginComponent&#45;&gt;AppModule -->
<g id="edge7" class="edge">
<title>LoginComponent&#45;&gt;AppModule</title>
<path fill="none" stroke="black" d="M741,-198.29C741,-220.21 741,-254 741,-254 741,-254 1252.14,-254 1252.14,-254"/>
<polygon fill="black" stroke="black" points="1252.14,-257.5 1262.14,-254 1252.14,-250.5 1252.14,-257.5"/>
</g>
<!-- AppComponent  -->
<g id="node12" class="node">
<title>AppComponent </title>
<polygon fill="#80b1d3" stroke="black" points="1358.44,-334 1249.56,-334 1249.56,-298 1358.44,-298 1358.44,-334"/>
<text text-anchor="middle" x="1304" y="-311.8" font-family="Times,serif" font-size="14.00">AppComponent </text>
</g>
<!-- AppModule&#45;&gt;AppComponent  -->
<g id="edge11" class="edge">
<title>AppModule&#45;&gt;AppComponent </title>
<path fill="none" stroke="black" stroke-dasharray="1,5" d="M1304,-266.22C1304,-266.22 1304,-287.73 1304,-287.73"/>
<polygon fill="black" stroke="black" points="1300.5,-287.73 1304,-297.73 1307.5,-287.73 1300.5,-287.73"/>
</g>
<!-- AppRoutingModule -->
<g id="node9" class="node">
<title>AppRoutingModule</title>
<polygon fill="#8dd3c7" stroke="black" points="1933.27,-198 1930.27,-202 1909.27,-202 1906.27,-198 1804.73,-198 1804.73,-162 1933.27,-162 1933.27,-198"/>
<text text-anchor="middle" x="1869" y="-175.8" font-family="Times,serif" font-size="14.00">AppRoutingModule</text>
</g>
<!-- AppRoutingModule&#45;&gt;AppModule -->
<g id="edge8" class="edge">
<title>AppRoutingModule&#45;&gt;AppModule</title>
<path fill="none" stroke="black" d="M1869,-198.28C1869,-219.32 1869,-251 1869,-251 1869,-251 1356.01,-251 1356.01,-251"/>
<polygon fill="black" stroke="black" points="1356.01,-247.5 1346.01,-251 1356.01,-254.5 1356.01,-247.5"/>
</g>
<!-- CoreModule -->
<g id="node10" class="node">
<title>CoreModule</title>
<polygon fill="#8dd3c7" stroke="black" points="1786.26,-198 1783.26,-202 1762.26,-202 1759.26,-198 1699.74,-198 1699.74,-162 1786.26,-162 1786.26,-198"/>
<text text-anchor="middle" x="1743" y="-175.8" font-family="Times,serif" font-size="14.00">CoreModule</text>
</g>
<!-- CoreModule&#45;&gt;AppModule -->
<g id="edge9" class="edge">
<title>CoreModule&#45;&gt;AppModule</title>
<path fill="none" stroke="black" d="M1743,-198.03C1743,-217.58 1743,-246 1743,-246 1743,-246 1355.7,-246 1355.7,-246"/>
<polygon fill="black" stroke="black" points="1355.7,-242.5 1345.7,-246 1355.7,-249.5 1355.7,-242.5"/>
</g>
<!-- SharedModule -->
<g id="node11" class="node">
<title>SharedModule</title>
<polygon fill="#8dd3c7" stroke="black" points="2050.42,-198 2047.42,-202 2026.42,-202 2023.42,-198 1951.58,-198 1951.58,-162 2050.42,-162 2050.42,-198"/>
<text text-anchor="middle" x="2001" y="-175.8" font-family="Times,serif" font-size="14.00">SharedModule</text>
</g>
<!-- SharedModule&#45;&gt;AppModule -->
<g id="edge10" class="edge">
<title>SharedModule&#45;&gt;AppModule</title>
<path fill="none" stroke="black" d="M2001,-198.01C2001,-220.49 2001,-256 2001,-256 2001,-256 1355.77,-256 1355.77,-256"/>
<polygon fill="black" stroke="black" points="1355.77,-252.5 1345.77,-256 1355.77,-259.5 1355.77,-252.5"/>
</g>
<!-- HomeModule -->
<g id="node17" class="node">
<title>HomeModule</title>
<polygon fill="#8dd3c7" stroke="black" points="365.76,-266 362.76,-270 341.76,-270 338.76,-266 272.24,-266 272.24,-230 365.76,-230 365.76,-266"/>
<text text-anchor="middle" x="319" y="-243.8" font-family="Times,serif" font-size="14.00">HomeModule</text>
</g>
<!-- SharedModule&#45;&gt;HomeModule -->
<g id="edge17" class="edge">
<title>SharedModule&#45;&gt;HomeModule</title>
<path fill="none" stroke="black" d="M1976.39,-198.19C1976.39,-206.28 1976.39,-214 1976.39,-214 1976.39,-214 351.26,-214 351.26,-214 351.26,-214 351.26,-219.81 351.26,-219.81"/>
<polygon fill="black" stroke="black" points="347.76,-219.81 351.26,-229.81 354.76,-219.81 347.76,-219.81"/>
</g>
<!-- SafeResourceUrlPipe  -->
<g id="node20" class="node">
<title>SafeResourceUrlPipe </title>
<polygon fill="#fb8072" stroke="black" points="2230,-266 2090,-266 2090,-230 2230,-230 2230,-266"/>
<text text-anchor="middle" x="2160" y="-243.8" font-family="Times,serif" font-size="14.00">SafeResourceUrlPipe </text>
</g>
<!-- SharedModule&#45;&gt;SafeResourceUrlPipe  -->
<g id="edge20" class="edge">
<title>SharedModule&#45;&gt;SafeResourceUrlPipe </title>
<path fill="none" stroke="black" stroke-dasharray="5,2" d="M2025.61,-198.38C2025.61,-222.28 2025.61,-261 2025.61,-261 2025.61,-261 2079.65,-261 2079.65,-261"/>
<polygon fill="black" stroke="black" points="2079.65,-264.5 2089.65,-261 2079.65,-257.5 2079.65,-264.5"/>
</g>
<!-- UserInterfaceModule  -->
<g id="node21" class="node">
<title>UserInterfaceModule </title>
<polygon fill="#fb8072" stroke="black" points="2387.71,-266 2248.29,-266 2248.29,-230 2387.71,-230 2387.71,-266"/>
<text text-anchor="middle" x="2318" y="-243.8" font-family="Times,serif" font-size="14.00">UserInterfaceModule </text>
</g>
<!-- SharedModule&#45;&gt;UserInterfaceModule  -->
<g id="edge21" class="edge">
<title>SharedModule&#45;&gt;UserInterfaceModule </title>
<path fill="none" stroke="black" stroke-dasharray="5,2" d="M2050.53,-186C2139.69,-186 2318,-186 2318,-186 2318,-186 2318,-219.73 2318,-219.73"/>
<polygon fill="black" stroke="black" points="2314.5,-219.73 2318,-229.73 2321.5,-219.73 2314.5,-219.73"/>
</g>
<!-- TokenInterceptor -->
<g id="node13" class="node">
<title>TokenInterceptor</title>
<ellipse fill="#fdb462" stroke="black" cx="582" cy="-180" rx="78.13" ry="18"/>
<text text-anchor="middle" x="582" y="-175.8" font-family="Times,serif" font-size="14.00">TokenInterceptor</text>
</g>
<!-- TokenInterceptor&#45;&gt;AppModule -->
<g id="edge12" class="edge">
<title>TokenInterceptor&#45;&gt;AppModule</title>
<path fill="none" stroke="black" d="M582,-198.15C582,-221.76 582,-260 582,-260 582,-260 1252.33,-260 1252.33,-260"/>
<polygon fill="black" stroke="black" points="1252.33,-263.5 1262.33,-260 1252.33,-256.5 1252.33,-263.5"/>
</g>
<!-- UserInterfaceModule -->
<g id="node14" class="node">
<title>UserInterfaceModule</title>
<polygon fill="#8dd3c7" stroke="black" points="1939.71,-122 1936.71,-126 1915.71,-126 1912.71,-122 1804.29,-122 1804.29,-86 1939.71,-86 1939.71,-122"/>
<text text-anchor="middle" x="1872" y="-99.8" font-family="Times,serif" font-size="14.00">UserInterfaceModule</text>
</g>
<!-- UserInterfaceModule&#45;&gt;CoreModule -->
<g id="edge13" class="edge">
<title>UserInterfaceModule&#45;&gt;CoreModule</title>
<path fill="none" stroke="black" d="M1804.1,-104C1773.02,-104 1743,-104 1743,-104 1743,-104 1743,-151.99 1743,-151.99"/>
<polygon fill="black" stroke="black" points="1739.5,-151.99 1743,-161.99 1746.5,-151.99 1739.5,-151.99"/>
</g>
<!-- UserInterfaceModule&#45;&gt;SharedModule -->
<g id="edge19" class="edge">
<title>UserInterfaceModule&#45;&gt;SharedModule</title>
<path fill="none" stroke="black" d="M1939.9,-104C1970.98,-104 2001,-104 2001,-104 2001,-104 2001,-151.99 2001,-151.99"/>
<polygon fill="black" stroke="black" points="1997.5,-151.99 2001,-161.99 2004.5,-151.99 1997.5,-151.99"/>
</g>
<!-- DashboardComponent -->
<g id="node15" class="node">
<title>DashboardComponent</title>
<polygon fill="#ffffb3" stroke="black" points="463.97,-198 322.03,-198 322.03,-162 463.97,-162 463.97,-198"/>
<text text-anchor="middle" x="393" y="-175.8" font-family="Times,serif" font-size="14.00">DashboardComponent</text>
</g>
<!-- DashboardComponent&#45;&gt;HomeModule -->
<g id="edge14" class="edge">
<title>DashboardComponent&#45;&gt;HomeModule</title>
<path fill="none" stroke="black" d="M336.64,-198.22C336.64,-198.22 336.64,-219.73 336.64,-219.73"/>
<polygon fill="black" stroke="black" points="333.14,-219.73 336.64,-229.73 340.14,-219.73 333.14,-219.73"/>
</g>
<!-- ServerComponent -->
<g id="node16" class="node">
<title>ServerComponent</title>
<polygon fill="#ffffb3" stroke="black" points="303.87,-198 186.13,-198 186.13,-162 303.87,-162 303.87,-198"/>
<text text-anchor="middle" x="245" y="-175.8" font-family="Times,serif" font-size="14.00">ServerComponent</text>
</g>
<!-- ServerComponent&#45;&gt;HomeModule -->
<g id="edge15" class="edge">
<title>ServerComponent&#45;&gt;HomeModule</title>
<path fill="none" stroke="black" d="M288.03,-198.22C288.03,-198.22 288.03,-219.73 288.03,-219.73"/>
<polygon fill="black" stroke="black" points="284.53,-219.73 288.03,-229.73 291.53,-219.73 284.53,-219.73"/>
</g>
<!-- HomeRoutingModule -->
<g id="node18" class="node">
<title>HomeRoutingModule</title>
<polygon fill="#8dd3c7" stroke="black" points="162.38,-198 159.38,-202 138.38,-202 135.38,-198 23.62,-198 23.62,-162 162.38,-162 162.38,-198"/>
<text text-anchor="middle" x="93" y="-175.8" font-family="Times,serif" font-size="14.00">HomeRoutingModule</text>
</g>
<!-- HomeRoutingModule&#45;&gt;HomeModule -->
<g id="edge16" class="edge">
<title>HomeRoutingModule&#45;&gt;HomeModule</title>
<path fill="none" stroke="black" d="M93,-198.22C93,-218.37 93,-248 93,-248 93,-248 262.17,-248 262.17,-248"/>
<polygon fill="black" stroke="black" points="262.17,-251.5 272.17,-248 262.17,-244.5 262.17,-251.5"/>
</g>
<!-- SafeResourceUrlPipe -->
<g id="node19" class="node">
<title>SafeResourceUrlPipe</title>
<polygon fill="#ffffb3" stroke="black" points="2548,-266 2412,-266 2412,-230 2548,-230 2548,-266"/>
<text text-anchor="middle" x="2480" y="-243.8" font-family="Times,serif" font-size="14.00">SafeResourceUrlPipe</text>
</g>
<!-- SafeResourceUrlPipe&#45;&gt;SharedModule -->
<g id="edge18" class="edge">
<title>SafeResourceUrlPipe&#45;&gt;SharedModule</title>
<path fill="none" stroke="black" d="M2480,-229.71C2480,-207.79 2480,-174 2480,-174 2480,-174 2060.46,-174 2060.46,-174"/>
<polygon fill="black" stroke="black" points="2060.46,-170.5 2050.46,-174 2060.46,-177.5 2060.46,-170.5"/>
</g>
</g>
</svg>
