<?xml version="1.0" encoding="UTF-8" standalone="no"?>
<!DOCTYPE svg PUBLIC "-//W3C//DTD SVG 1.1//EN"
 "http://www.w3.org/Graphics/SVG/1.1/DTD/svg11.dtd">
<!-- Generated by graphviz version 2.46.0 (20210119.1425)
 -->
<!-- Title: dependencies Pages: 1 -->
<svg width="1437pt" height="284pt"
 viewBox="0.00 0.00 1437.00 284.00" xmlns="http://www.w3.org/2000/svg" xmlns:xlink="http://www.w3.org/1999/xlink">
<g id="graph0" class="graph" transform="scale(1 1) rotate(0) translate(4 280)">
<title>dependencies</title>
<polygon fill="white" stroke="transparent" points="-4,4 -4,-280 1433,-280 1433,4 -4,4"/>
<text text-anchor="start" x="693.51" y="-42.4" font-family="sans-serif" font-weight="bold" font-size="14.00">Legend</text>
<polygon fill="#ffffb3" stroke="transparent" points="480.5,-10 480.5,-30 500.5,-30 500.5,-10 480.5,-10"/>
<text text-anchor="start" x="504.13" y="-15.4" font-family="sans-serif" font-size="14.00"> &#160;Declarations</text>
<polygon fill="#8dd3c7" stroke="transparent" points="593.5,-10 593.5,-30 613.5,-30 613.5,-10 593.5,-10"/>
<text text-anchor="start" x="617.23" y="-15.4" font-family="sans-serif" font-size="14.00"> &#160;Module</text>
<polygon fill="#80b1d3" stroke="transparent" points="679.5,-10 679.5,-30 699.5,-30 699.5,-10 679.5,-10"/>
<text text-anchor="start" x="703.28" y="-15.4" font-family="sans-serif" font-size="14.00"> &#160;Bootstrap</text>
<polygon fill="#fdb462" stroke="transparent" points="776.5,-10 776.5,-30 796.5,-30 796.5,-10 776.5,-10"/>
<text text-anchor="start" x="800.17" y="-15.4" font-family="sans-serif" font-size="14.00"> &#160;Providers</text>
<polygon fill="#fb8072" stroke="transparent" points="872.5,-10 872.5,-30 892.5,-30 892.5,-10 872.5,-10"/>
<text text-anchor="start" x="896.23" y="-15.4" font-family="sans-serif" font-size="14.00"> &#160;Exports</text>
<g id="clust1" class="cluster">
<title>cluster_AppModule</title>
<polygon fill="none" stroke="black" stroke-dasharray="1,5" points="8,-70 8,-268 1421,-268 1421,-70 8,-70"/>
</g>
<g id="clust2" class="cluster">
<title>cluster_AppModule_declarations</title>
<polygon fill="none" stroke="black" points="570,-78 570,-130 1413,-130 1413,-78 570,-78"/>
</g>
<g id="clust12" class="cluster">
<title>cluster_AppModule_providers</title>
<polygon fill="none" stroke="black" points="390,-78 390,-130 562,-130 562,-78 390,-78"/>
</g>
<g id="clust9" class="cluster">
<title>cluster_AppModule_imports</title>
<polygon fill="none" stroke="black" points="16,-78 16,-130 382,-130 382,-78 16,-78"/>
</g>
<g id="clust11" class="cluster">
<title>cluster_AppModule_bootstrap</title>
<polygon fill="none" stroke="black" points="641,-208 641,-260 765,-260 765,-208 641,-208"/>
</g>
<!-- AppComponent -->
<g id="node1" class="node">
<title>AppComponent</title>
<polygon fill="#ffffb3" stroke="black" points="1404.94,-122 1299.06,-122 1299.06,-86 1404.94,-86 1404.94,-122"/>
<text text-anchor="middle" x="1352" y="-99.8" font-family="Times,serif" font-size="14.00">AppComponent</text>
</g>
<!-- AppModule -->
<g id="node7" class="node">
<title>AppModule</title>
<polygon fill="#8dd3c7" stroke="black" points="744.66,-187 741.66,-191 720.66,-191 717.66,-187 661.34,-187 661.34,-151 744.66,-151 744.66,-187"/>
<text text-anchor="middle" x="703" y="-164.8" font-family="Times,serif" font-size="14.00">AppModule</text>
</g>
<!-- AppComponent&#45;&gt;AppModule -->
<g id="edge1" class="edge">
<title>AppComponent&#45;&gt;AppModule</title>
<path fill="none" stroke="black" d="M1352,-122.01C1352,-144.49 1352,-180 1352,-180 1352,-180 755.08,-180 755.08,-180"/>
<polygon fill="black" stroke="black" points="755.08,-176.5 745.08,-180 755.08,-183.5 755.08,-176.5"/>
</g>
<!-- AuthRedirectComponent -->
<g id="node2" class="node">
<title>AuthRedirectComponent</title>
<polygon fill="#ffffb3" stroke="black" points="1281.25,-122 1124.75,-122 1124.75,-86 1281.25,-86 1281.25,-122"/>
<text text-anchor="middle" x="1203" y="-99.8" font-family="Times,serif" font-size="14.00">AuthRedirectComponent</text>
</g>
<!-- AuthRedirectComponent&#45;&gt;AppModule -->
<g id="edge2" class="edge">
<title>AuthRedirectComponent&#45;&gt;AppModule</title>
<path fill="none" stroke="black" d="M1203,-122.13C1203,-142.57 1203,-173 1203,-173 1203,-173 754.77,-173 754.77,-173"/>
<polygon fill="black" stroke="black" points="754.77,-169.5 744.77,-173 754.77,-176.5 754.77,-169.5"/>
</g>
<!-- FooterComponent -->
<g id="node3" class="node">
<title>FooterComponent</title>
<polygon fill="#ffffb3" stroke="black" points="1106.88,-122 989.12,-122 989.12,-86 1106.88,-86 1106.88,-122"/>
<text text-anchor="middle" x="1048" y="-99.8" font-family="Times,serif" font-size="14.00">FooterComponent</text>
</g>
<!-- FooterComponent&#45;&gt;AppModule -->
<g id="edge3" class="edge">
<title>FooterComponent&#45;&gt;AppModule</title>
<path fill="none" stroke="black" d="M1048,-122.27C1048,-140.56 1048,-166 1048,-166 1048,-166 754.96,-166 754.96,-166"/>
<polygon fill="black" stroke="black" points="754.96,-162.5 744.96,-166 754.96,-169.5 754.96,-162.5"/>
</g>
<!-- HeaderComponent -->
<g id="node4" class="node">
<title>HeaderComponent</title>
<polygon fill="#ffffb3" stroke="black" points="970.74,-122 849.26,-122 849.26,-86 970.74,-86 970.74,-122"/>
<text text-anchor="middle" x="910" y="-99.8" font-family="Times,serif" font-size="14.00">HeaderComponent</text>
</g>
<!-- HeaderComponent&#45;&gt;AppModule -->
<g id="edge4" class="edge">
<title>HeaderComponent&#45;&gt;AppModule</title>
<path fill="none" stroke="black" d="M910,-122.01C910,-138.05 910,-159 910,-159 910,-159 754.89,-159 754.89,-159"/>
<polygon fill="black" stroke="black" points="754.89,-155.5 744.89,-159 754.89,-162.5 754.89,-155.5"/>
</g>
<!-- LayoutComponent -->
<g id="node5" class="node">
<title>LayoutComponent</title>
<polygon fill="#ffffb3" stroke="black" points="831.49,-122 710.51,-122 710.51,-86 831.49,-86 831.49,-122"/>
<text text-anchor="middle" x="771" y="-99.8" font-family="Times,serif" font-size="14.00">LayoutComponent</text>
</g>
<!-- LayoutComponent&#45;&gt;AppModule -->
<g id="edge5" class="edge">
<title>LayoutComponent&#45;&gt;AppModule</title>
<path fill="none" stroke="black" d="M727.67,-122.11C727.67,-122.11 727.67,-140.99 727.67,-140.99"/>
<polygon fill="black" stroke="black" points="724.17,-140.99 727.67,-150.99 731.17,-140.99 724.17,-140.99"/>
</g>
<!-- LoginComponent -->
<g id="node6" class="node">
<title>LoginComponent</title>
<polygon fill="#ffffb3" stroke="black" points="692.28,-122 577.72,-122 577.72,-86 692.28,-86 692.28,-122"/>
<text text-anchor="middle" x="635" y="-99.8" font-family="Times,serif" font-size="14.00">LoginComponent</text>
</g>
<!-- LoginComponent&#45;&gt;AppModule -->
<g id="edge6" class="edge">
<title>LoginComponent&#45;&gt;AppModule</title>
<path fill="none" stroke="black" d="M676.78,-122.11C676.78,-122.11 676.78,-140.99 676.78,-140.99"/>
<polygon fill="black" stroke="black" points="673.28,-140.99 676.78,-150.99 680.28,-140.99 673.28,-140.99"/>
</g>
<!-- AppComponent  -->
<g id="node11" class="node">
<title>AppComponent </title>
<polygon fill="#80b1d3" stroke="black" points="757.44,-252 648.56,-252 648.56,-216 757.44,-216 757.44,-252"/>
<text text-anchor="middle" x="703" y="-229.8" font-family="Times,serif" font-size="14.00">AppComponent </text>
</g>
<!-- AppModule&#45;&gt;AppComponent  -->
<g id="edge10" class="edge">
<title>AppModule&#45;&gt;AppComponent </title>
<path fill="none" stroke="black" stroke-dasharray="1,5" d="M703,-187.11C703,-187.11 703,-205.99 703,-205.99"/>
<polygon fill="black" stroke="black" points="699.5,-205.99 703,-215.99 706.5,-205.99 699.5,-205.99"/>
</g>
<!-- AppRoutingModule -->
<g id="node8" class="node">
<title>AppRoutingModule</title>
<polygon fill="#8dd3c7" stroke="black" points="374.27,-122 371.27,-126 350.27,-126 347.27,-122 245.73,-122 245.73,-86 374.27,-86 374.27,-122"/>
<text text-anchor="middle" x="310" y="-99.8" font-family="Times,serif" font-size="14.00">AppRoutingModule</text>
</g>
<!-- AppRoutingModule&#45;&gt;AppModule -->
<g id="edge7" class="edge">
<title>AppRoutingModule&#45;&gt;AppModule</title>
<path fill="none" stroke="black" d="M310,-122.27C310,-140.56 310,-166 310,-166 310,-166 651.31,-166 651.31,-166"/>
<polygon fill="black" stroke="black" points="651.31,-169.5 661.31,-166 651.31,-162.5 651.31,-169.5"/>
</g>
<!-- CoreModule -->
<g id="node9" class="node">
<title>CoreModule</title>
<polygon fill="#8dd3c7" stroke="black" points="227.26,-122 224.26,-126 203.26,-126 200.26,-122 140.74,-122 140.74,-86 227.26,-86 227.26,-122"/>
<text text-anchor="middle" x="184" y="-99.8" font-family="Times,serif" font-size="14.00">CoreModule</text>
</g>
<!-- CoreModule&#45;&gt;AppModule -->
<g id="edge8" class="edge">
<title>CoreModule&#45;&gt;AppModule</title>
<path fill="none" stroke="black" d="M184,-122.13C184,-142.57 184,-173 184,-173 184,-173 650.97,-173 650.97,-173"/>
<polygon fill="black" stroke="black" points="650.97,-176.5 660.97,-173 650.97,-169.5 650.97,-176.5"/>
</g>
<!-- SharedModule -->
<g id="node10" class="node">
<title>SharedModule</title>
<polygon fill="#8dd3c7" stroke="black" points="122.42,-122 119.42,-126 98.42,-126 95.42,-122 23.58,-122 23.58,-86 122.42,-86 122.42,-122"/>
<text text-anchor="middle" x="73" y="-99.8" font-family="Times,serif" font-size="14.00">SharedModule</text>
</g>
<!-- SharedModule&#45;&gt;AppModule -->
<g id="edge9" class="edge">
<title>SharedModule&#45;&gt;AppModule</title>
<path fill="none" stroke="black" d="M73,-122.01C73,-144.49 73,-180 73,-180 73,-180 651.18,-180 651.18,-180"/>
<polygon fill="black" stroke="black" points="651.18,-183.5 661.18,-180 651.18,-176.5 651.18,-183.5"/>
</g>
<!-- TokenInterceptor -->
<g id="node12" class="node">
<title>TokenInterceptor</title>
<ellipse fill="#fdb462" stroke="black" cx="476" cy="-104" rx="78.13" ry="18"/>
<text text-anchor="middle" x="476" y="-99.8" font-family="Times,serif" font-size="14.00">TokenInterceptor</text>
</g>
<!-- TokenInterceptor&#45;&gt;AppModule -->
<g id="edge11" class="edge">
<title>TokenInterceptor&#45;&gt;AppModule</title>
<path fill="none" stroke="black" d="M476,-122.01C476,-138.05 476,-159 476,-159 476,-159 651.1,-159 651.1,-159"/>
<polygon fill="black" stroke="black" points="651.1,-162.5 661.1,-159 651.1,-155.5 651.1,-162.5"/>
</g>
</g>
</svg>
