<svg viewBox="0 0 408 296" xmlns="http://www.w3.org/2000/svg"><path d="m0 0h408v296h-408z" fill="#eee"/><path d="m24 22h360v252h-360z" fill="#17242b"/><path d="m25 50h89v223h-89z" fill="#17242b"/><path d="m25 23h358v27h-358z" fill="#404e60"/><path d="m37 31h72v9h-72z" fill="#6f849e"/><circle cx="367.5" cy="35.25" fill="#6f849e" r="6"/><g fill="#597784"><path d="m37 61h67v6h-67z"/><path d="m37 78h67v6h-67z"/><path d="m37 95h67v6h-67z"/><path d="m37 112h67v6h-67z"/><path d="m37 129h67v6h-67z"/><path d="m37 146h67v6h-67z"/><path d="m37 163h67v6h-67z"/><path d="m126 59h56v9h-56z"/></g><path d="m114 50h1v223h-1z" fill="#506972"/><path d="m127.63 190.5h239.74a3.13 3.13 0 0 1 3.13 3.13v14.87a0 0 0 0 1 0 0h-246a0 0 0 0 1 0 0v-14.87a3.13 3.13 0 0 1 3.13-3.13z" fill="none" stroke="#6b7a8a" stroke-miterlimit="10"/><g fill="#597784"><path d="m138 197h61v4h-61z"/><path d="m232 197h34v4h-34z"/><path d="m318 197h35v4h-35z"/></g><path d="m124.5 208.5h246v18h-246z" fill="#2a3e46" stroke="#6b7a8a" stroke-miterlimit="10"/><path d="m138 215h61v4h-61z" fill="#597784"/><path d="m232 215h34v4h-34z" fill="#597784"/><path d="m318 215h35v4h-35z" fill="#597784"/><path d="m124.5 226.5h246v18h-246z" fill="#2a3e46" stroke="#6b7a8a" stroke-miterlimit="10"/><path d="m138 233h61v4h-61z" fill="#597784"/><path d="m232 233h34v4h-34z" fill="#597784"/><path d="m318 233h35v4h-35z" fill="#597784"/><path d="m124.5 244.5h246v18h-246z" fill="#2a3e46" stroke="#6b7a8a" stroke-miterlimit="10"/><path d="m138 251h61v4h-61z" fill="#597784"/><path d="m232 251h34v4h-34z" fill="#597784"/><path d="m318 251h35v4h-35z" fill="#597784"/><rect height="99" rx="3" stroke="#000" stroke-miterlimit="10" width="117" x="252.5" y="79.5"/><rect height="99" rx="3" stroke="#000" stroke-miterlimit="10" width="117" x="124.5" y="79.5"/><rect fill="#2a3e46" height="99" rx="3" stroke="#000" stroke-miterlimit="10" width="117" x="252.5" y="78.5"/><path d="m262 88h66v6h-66z" fill="#597784"/><path d="m311 112h46v4h-46z" fill="#597784"/><path d="m311 122h33v4h-33z" fill="#597784"/><path d="m271.42 136.49a14.82 14.82 0 1 1 20.95-.45" fill="none" stroke="#60b515" stroke-miterlimit="10" stroke-width="4"/><rect fill="#49afd9" height="12" rx="1.5" width="33" x="262" y="158"/><rect fill="#49afd9" height="12" rx="1.5" width="33" x="300" y="158"/><rect fill="#2a3e46" height="99" rx="3" stroke="#000" stroke-miterlimit="10" width="117" x="124.5" y="78.5"/><path d="m134 88h66v6h-66z" fill="#597784"/><path d="m183 112h46v4h-46z" fill="#597784"/><path d="m183 122h33v4h-33z" fill="#597784"/><path d="m143.42 136.49a14.82 14.82 0 1 1 21-.45" fill="none" stroke="#f54f47" stroke-miterlimit="10" stroke-width="4"/><rect fill="#49afd9" height="12" rx="1.5" width="33" x="134" y="158"/><rect fill="#49afd9" height="12" rx="1.5" width="33" x="172" y="158"/></svg>